HIERARCHY
ROOT Hips
{
  OFFSET 49.8446 84.2251 -2.41518
  CHANNELS 6 Xposition Yposition Zposition Zrotation Xrotation Yrotation
  JOINT spine
  {
    OFFSET 0 6.24479 0.359107
    CHANNELS 3 Zrotation Xrotation Yrotation
    JOINT spine1
    {
      OFFSET 0 9.06941 0
      CHANNELS 3 Zrotation Xrotation Yrotation
      JOINT spine2
      {
        OFFSET 0 8.69014 0
        CHANNELS 3 Zrotation Xrotation Yrotation
        JOINT Neck
        {
          OFFSET 0 22.3112 1.06372
          CHANNELS 3 Zrotation Xrotation Yrotation
          JOINT Head
          {
            OFFSET 0 6.74081 0
            CHANNELS 3 Zrotation Xrotation Yrotation
            End Site
            {
              OFFSET 0 16.3165 -5.38097
            }
          }
        }
        JOINT RightShoulder
        {
          OFFSET -3.65916 9.38468 -0.509514
          CHANNELS 3 Zrotation Xrotation Yrotation
          JOINT RightArm
          {
            OFFSET 0 12.3089 0
            CHANNELS 3 Zrotation Xrotation Yrotation
            JOINT RightArmRoll
            {
              OFFSET 0 6.21375 0
              CHANNELS 3 Zrotation Xrotation Yrotation
              JOINT RightForeArm
              {
                OFFSET 0 18.0985 0
                CHANNELS 3 Zrotation Xrotation Yrotation
                JOINT RightForeArmRoll
                {
                  OFFSET 0 6.97279 0
                  CHANNELS 3 Zrotation Xrotation Yrotation
                  JOINT RightHand
                  {
                    OFFSET 0 13.9929 0
                    CHANNELS 3 Zrotation Xrotation Yrotation
                    End Site
                    {
                      OFFSET 0 0 0
                    }
                  }
                }
              }
            }
          }
        }
        JOINT LeftShoulder
        {
          OFFSET 3.65916 9.38468 -0.509514
          CHANNELS 3 Zrotation Xrotation Yrotation
          JOINT LeftArm
          {
            OFFSET 0 12.3089 0
            CHANNELS 3 Zrotation Xrotation Yrotation
            JOINT LeftArmRoll
            {
              OFFSET 0 6.21375 0
              CHANNELS 3 Zrotation Xrotation Yrotation
              JOINT LeftForeArm
              {
                OFFSET 0 18.0985 0
                CHANNELS 3 Zrotation Xrotation Yrotation
                JOINT LeftForeArmRoll
                {
                  OFFSET 0 6.97279 0
                  CHANNELS 3 Zrotation Xrotation Yrotation
                  JOINT LeftHand
                  {
                    OFFSET 0 13.9929 0
                    CHANNELS 3 Zrotation Xrotation Yrotation
                    End Site
                    {
                      OFFSET 0 0 0
                    }
                  }
                }
              }
            }
          }
        }
      }
    }
  }
  JOINT RightUpLeg
  {
    OFFSET -5.53515 -1.015 -0.851454
    CHANNELS 3 Zrotation Xrotation Yrotation
    JOINT RightUpLegRoll
    {
      OFFSET 0 16.4075 0
      CHANNELS 3 Zrotation Xrotation Yrotation
      JOINT RightLeg
      {
        OFFSET 0 -20.3181 0
        CHANNELS 3 Zrotation Xrotation Yrotation
        JOINT RightLegRoll
        {
          OFFSET 0 20.3846 0
          CHANNELS 3 Zrotation Xrotation Yrotation
          JOINT RightFoot
          {
            OFFSET 0 16.9668 0
            CHANNELS 3 Zrotation Xrotation Yrotation
            JOINT RightToeBase
            {
              OFFSET 0 14.1834 0
              CHANNELS 3 Zrotation Xrotation Yrotation
              End Site
              {
                OFFSET 0.0060118 6.86889 -0.791746
              }
            }
          }
        }
      }
    }
  }
  JOINT LeftUpLeg
  {
    OFFSET 5.53515 -1.015 -0.851454
    CHANNELS 3 Zrotation Xrotation Yrotation
    JOINT LeftUpLegRoll
    {
      OFFSET 0 16.4076 0
      CHANNELS 3 Zrotation Xrotation Yrotation
      JOINT LeftLeg
      {
        OFFSET 0 20.3181 0
        CHANNELS 3 Zrotation Xrotation Yrotation
        JOINT LeftLegRoll
        {
          OFFSET 0 20.5731 0
          CHANNELS 3 Zrotation Xrotation Yrotation
          JOINT LeftFoot
          {
            OFFSET 0 16.7783 0
            CHANNELS 3 Zrotation Xrotation Yrotation
            JOINT LeftToeBase
            {
              OFFSET 0 14.1834 0
              CHANNELS 3 Zrotation Xrotation Yrotation
              End Site
              {
                OFFSET -0.0269423 6.8689 -0.791746
              }
            }
          }
        }
      }
    }
  }
}
MOTION
Frames: 9
Frame Time: 0.00208333
46.8276 83.9182 -4.07191 0.426281 1.87953 -2.57307 -0.112349 -1.63179 -0.0285261 -0.224983 0.739268 -0.0349795 -0.224687 2.38433 -0.0312262 1.8977 12.2037 0.314177 -1.37582 -3.08177 0.761203 69.0949 -1.51642 -1.92501 106.615 1.84391 14.0117 -8.47192e-006 1.58281e-006 7.23385e-006 8.51606 13.2673 -1.70515 2.00765e-005 4.00593e-006 -3 8.02908 -4.95141 0.697663 -61.3439 -5.85611 3.73144 -113.811 -1.40905 -17.6421 1.19741e-005 5.10108e-007 -1.00948e-005 -4.04089 18.1059 1.17563 1.15871e-005 3.97554e-007 3 -8.02975 -4.95146 -0.697674 176.943 7.04872 1.39125 180 7.01579e-015 179.073 177.829 13.7858 179.38 -2.67812e-006 -4.96396e-006 0.205108 -20.7444 71.7656 23.1428 8.13485 25.241 -3.48787 -177.25 1.11147 -2.02017 4.54188e-006 -4.6773e-006 -1.0651 -0.923194 -12.4989 0.707808 5.35018e-007 -4.00495e-006 -0.499016 27.0888 75.1653 -28.4068 -8.1462 25.576 3.03744 
46.817 83.9164 -4.08035 0.423771 1.91131 -2.57104 -0.112208 -1.63646 -0.0287666 -0.224707 0.729935 -0.0356617 -0.224402 2.37499 -0.0319133 1.90996 12.2156 0.311044 -1.38666 -3.10224 0.760619 69.1057 -1.51524 -1.92536 106.633 1.89445 13.9975 -8.47192e-006 1.58281e-006 7.23385e-006 8.5109 13.2703 -1.70575 2.00765e-005 4.00593e-006 -3 8.02908 -4.95141 0.697663 -61.3252 -5.85895 3.73204 -113.851 -1.41149 -17.5862 1.19741e-005 5.10108e-007 -1.00948e-005 -4.07716 18.1927 1.18589 1.15871e-005 3.97554e-007 3 -8.02975 -4.95146 -0.697674 176.948 7.08026 1.38332 180 7.01579e-015 179.073 177.829 13.7811 179.38 -2.67812e-006 -4.96396e-006 0.205082 -20.7415 71.7616 23.1384 8.13485 25.241 -3.48787 -177.246 1.16334 -2.01758 4.54188e-006 -4.6773e-006 -1.06508 -0.925069 -12.5307 0.70783 5.35018e-007 -4.00495e-006 -0.499069 27.0977 75.1698 -28.416 -8.14632 25.5778 3.0338 
46.8171 83.9119 -4.08518 0.421137 1.94433 -2.56908 -0.112045 -1.64141 -0.0290207 -0.224387 0.720033 -0.0363891 -0.224073 2.36509 -0.0326464 1.9227 12.2279 0.308103 -1.39806 -3.12279 0.760316 69.1171 -1.51434 -1.92589 106.651 1.94483 13.9839 -8.47192e-006 1.58281e-006 7.23385e-006 8.5053 13.2727 -1.70628 2.00765e-005 4.00593e-006 -3 8.02908 -4.95141 0.697663 -61.3061 -5.86167 3.73254 -113.892 -1.41528 -17.53 1.19741e-005 5.10108e-007 -1.00948e-005 -4.1143 18.2806 1.19636 1.15871e-005 3.97554e-007 3 -8.02975 -4.95146 -0.697674 176.954 7.11309 1.37525 180 7.01579e-015 179.073 177.829 13.7757 179.38 -2.67812e-006 -4.96396e-006 0.205042 -20.7383 71.7571 23.1333 8.13485 25.241 -3.48787 -177.241 1.21648 -2.01513 4.54188e-006 -4.6773e-006 -1.06504 -0.927301 -12.562 0.707787 5.35018e-007 -4.00495e-006 -0.499049 27.1061 75.174 -28.4247 -8.14643 25.5795 3.0303 
46.821 83.9182 -4.08832 0.418415 1.97821 -2.56718 -0.111866 -1.64656 -0.0292845 -0.224037 0.709734 -0.0371482 -0.223713 2.35479 -0.0334117 1.93577 12.2405 0.305294 -1.40985 -3.14342 0.760211 69.1288 -1.51363 -1.92654 106.669 1.9951 13.9709 -8.47192e-006 1.58281e-006 7.23385e-006 8.4994 13.2747 -1.70676 2.00765e-005 4.00593e-006 -3 8.02908 -4.95141 0.697663 -61.2868 -5.8643 3.73298 -113.933 -1.42002 -17.4738 1.19741e-005 5.10108e-007 -1.00948e-005 -4.15207 18.3693 1.20698 1.15871e-005 3.97554e-007 3 -8.02975 -4.95146 -0.697674 176.96 7.1468 1.3671 180 7.01579e-015 179.073 177.828 13.77 179.38 -2.67812e-006 -4.96396e-006 0.204994 -20.7347 71.7521 23.1277 8.13485 25.241 -3.48787 -177.236 1.27051 -2.01278 4.54188e-006 -4.6773e-006 -1.06501 -0.929784 -12.5929 0.707698 5.35018e-007 -4.00495e-006 -0.49898 27.1141 75.1781 -28.433 -8.14654 25.581 3.02689 
46.8188 83.9109 -4.0921 0.415641 2.01259 -2.5653 -0.111678 -1.65182 -0.0295537 -0.22367 0.699208 -0.0379254 -0.223335 2.34427 -0.0341954 1.94903 12.2533 0.302562 -1.42188 -3.16407 0.760218 69.1408 -1.51302 -1.92727 106.687 2.0453 13.9582 -8.47192e-006 1.58281e-006 7.23385e-006 8.49332 13.2764 -1.70722 2.00765e-005 4.00593e-006 -3 8.02908 -4.95141 0.697663 -61.2674 -5.86688 3.73337 -113.973 -1.4253 -17.4174 1.19741e-005 5.10108e-007 -1.00948e-005 -4.19021 18.4584 1.21769 1.15871e-005 3.97554e-007 3 -8.02975 -4.95146 -0.697674 176.966 7.18103 1.3589 180 7.01579e-015 179.073 177.828 13.7641 179.38 -2.67812e-006 -4.96396e-006 0.204941 -20.731 71.7469 23.1219 8.13485 25.241 -3.48787 -177.231 1.32504 -2.01049 4.54188e-006 -4.6773e-006 -1.06496 -0.93241 -12.6236 0.707582 5.35018e-007 -4.00495e-006 -0.498882 27.122 75.182 -28.4411 -8.14664 25.5825 3.02352 
46.8143 83.9132 -4.09979 0.412854 2.0471 -2.56343 -0.111488 -1.65711 -0.0298243 -0.223298 0.688624 -0.0387072 -0.222953 2.33368 -0.0349837 1.96234 12.2661 0.299848 -1.43396 -3.18474 0.760254 69.1528 -1.51244 -1.92802 106.705 2.09549 13.9456 -8.47192e-006 1.58281e-006 7.23385e-006 8.48721 13.2781 -1.70767 2.00765e-005 4.00593e-006 -3 8.02908 -4.95141 0.697663 -61.2479 -5.86945 3.73375 -114.014 -1.43072 -17.3611 1.19741e-005 5.10108e-007 -1.00948e-005 -4.22847 18.5477 1.22843 1.15871e-005 3.97554e-007 3 -8.02975 -4.95146 -0.697674 176.973 7.21539 1.35068 180 7.01579e-015 179.073 177.827 13.7581 179.38 -2.67812e-006 -4.96396e-006 0.204887 -20.7273 71.7417 23.116 8.13485 25.241 -3.48787 -177.226 1.3797 -2.00821 4.54188e-006 -4.6773e-006 -1.06492 -0.935072 -12.6542 0.707461 5.35018e-007 -4.00495e-006 -0.498776 27.1298 75.1859 -28.4492 -8.14674 25.584 3.02018 
46.8131 83.9107 -4.10412 0.410088 2.08136 -2.56155 -0.111303 -1.66235 -0.0300921 -0.222936 0.678155 -0.0394798 -0.222581 2.32321 -0.0357628 1.97556 12.2788 0.297096 -1.44593 -3.20539 0.760233 69.1647 -1.51181 -1.92873 106.723 2.14573 13.9328 -8.47192e-006 1.58281e-006 7.23385e-006 8.48117 13.2799 -1.70813 2.00765e-005 4.00593e-006 -3 8.02908 -4.95141 0.697663 -61.2285 -5.87204 3.73415 -114.055 -1.43587 -17.3047 1.19741e-005 5.10108e-007 -1.00948e-005 -4.26659 18.6367 1.23914 1.15871e-005 3.97554e-007 3 -8.02975 -4.95146 -0.697674 176.979 7.24949 1.34249 180 7.01579e-015 179.073 177.826 13.7522 179.38 -2.67812e-006 -4.96396e-006 0.204835 -20.7236 71.7365 23.1103 8.13485 25.241 -3.48787 -177.221 1.43411 -2.0059 4.54188e-006 -4.6773e-006 -1.06487 -0.937663 -12.6849 0.707352 5.35018e-007 -4.00495e-006 -0.498685 27.1378 75.1899 -28.4573 -8.14684 25.5856 3.0168 
46.815 83.909 -4.10638 0.407381 2.115 -2.55963 -0.111129 -1.66744 -0.0303532 -0.222595 0.667969 -0.0402299 -0.222231 2.31303 -0.0365189 1.98854 12.2913 0.294248 -1.45761 -3.226 0.760072 69.1763 -1.51104 -1.92935 106.741 2.19605 13.9197 -8.47192e-006 1.58281e-006 7.23385e-006 8.47536 13.282 -1.70862 2.00765e-005 4.00593e-006 -3 8.02908 -4.95141 0.697663 -61.2093 -5.8747 3.73461 -114.095 -1.44035 -17.2485 1.19741e-005 5.10108e-007 -1.00948e-005 -4.30433 18.7252 1.24978 1.15871e-005 3.97554e-007 3 -8.02975 -4.95146 -0.697674 176.985 7.28296 1.33436 180 7.01579e-015 179.073 177.826 13.7466 179.379 -2.67812e-006 -4.96396e-006 0.204789 -20.7202 71.7317 23.1049 8.13485 25.241 -3.48787 -177.216 1.48788 -2.00353 4.54188e-006 -4.6773e-006 -1.06484 -0.940075 -12.7159 0.707277 5.35018e-007 -4.00495e-006 -0.49863 27.146 75.194 -28.4658 -8.14695 25.5871 3.01336 
46.8158 83.9089 -4.11024 0.40477 2.14764 -2.55766 -0.110972 -1.67231 -0.0306032 -0.22229 0.658238 -0.0409437 -0.221916 2.3033 -0.0372381 2.00115 12.3035 0.291247 -1.46884 -3.24653 0.759685 69.1875 -1.51006 -1.92982 106.759 2.24651 13.906 -8.47192e-006 1.58281e-006 7.23385e-006 8.46989 13.2846 -1.70918 2.00765e-005 4.00593e-006 -3 8.02908 -4.95141 0.697663 -61.1903 -5.87745 3.73514 -114.136 -1.44374 -17.1924 1.19741e-005 5.10108e-007 -1.00948e-005 -4.34143 18.8128 1.26028 1.15871e-005 3.97554e-007 3 -8.02975 -4.95146 -0.697674 176.991 7.3154 1.32633 180 7.01579e-015 179.073 177.826 13.7414 179.379 -2.67812e-006 -4.96396e-006 0.204754 -20.7171 71.7273 23.1 8.13485 25.241 -3.48787 -177.212 1.54064 -2.00105 4.54188e-006 -4.6773e-006 -1.06481 -0.9422 -12.7474 0.707255 5.35018e-007 -4.00495e-006 -0.498632 27.1545 75.1983 -28.4746 -8.14706 25.5888 3.00981 
